PathFileType	4	(x/y/z)	S01_PSF_T11.trc
DataRate	CameraRate	NumFrames	NumMarkers	Units	OrigDataRate	OrigDataStartFrame	OrigNumFrames
240	240	10	51	mm	240	328	436
Frame#	Time	Sternum			R.Acromium			L.Acromium			Top.Head			R.ASIS			L.ASIS			R.PSIS			L.PSIS			R.Great.Tro			L.Great.Tro			R.Iliac.Crest			L.Iliac.Crest			V.Sacral			R.Thigh.Upper.Post			R.Thigh.Lower.Ant			R.Thigh.Lower.Post			R.Thigh.Upper.Ant			R.Knee.Lat			R.Knee.Med			R.Shank.Upper.Post			R.Shank.Lower.Ant			R.Shank.Lower.Post			R.Shank.Upper.Ant			R.Ankle.Lat			R.Ankle.Med			R.Heel.Upper			R.Heel.Med			R.Heel.Lat			R.Toe.Lat			R.Toe.Med			R.Toe.Tip			L.Thigh.Upper.Post			L.Thigh.Lower.Ant			L.Thigh.Lower.Post			L.Thigh.Upper.Ant			L.Knee.Lat			L.Knee.Med			L.Shank.Upper.Post			L.Shank.Lower.Ant			L.Shank.Lower.Post			L.Shank.Upper.Ant			L.Ankle.Lat			L.Ankle.Med			L.Heel.Upper			L.Heel.Med			L.Heel.Lat			L.Toe.Lat			L.Toe.Med			L.Toe.Tip			Cervical.Spine			Back			
		X1	Y1	Z1	X2	Y2	Z2	X3	Y3	Z3	X4	Y4	Z4	X5	Y5	Z5	X6	Y6	Z6	X7	Y7	Z7	X8	Y8	Z8	X9	Y9	Z9	X10	Y10	Z10	X11	Y11	Z11	X12	Y12	Z12	X13	Y13	Z13	X14	Y14	Z14	X15	Y15	Z15	X16	Y16	Z16	X17	Y17	Z17	X18	Y18	Z18	X19	Y19	Z19	X20	Y20	Z20	X21	Y21	Z21	X22	Y22	Z22	X23	Y23	Z23	X24	Y24	Z24	X25	Y25	Z25	X26	Y26	Z26	X27	Y27	Z27	X28	Y28	Z28	X29	Y29	Z29	X30	Y30	Z30	X31	Y31	Z31	X32	Y32	Z32	X33	Y33	Z33	X34	Y34	Z34	X35	Y35	Z35	X36	Y36	Z36	X37	Y37	Z37	X38	Y38	Z38	X39	Y39	Z39	X40	Y40	Z40	X41	Y41	Z41	X42	Y42	Z42	X43	Y43	Z43	X44	Y44	Z44	X45	Y45	Z45	X46	Y46	Z46	X47	Y47	Z47	X48	Y48	Z48	X49	Y49	Z49	X50	Y50	Z50	X51	Y51	Z51	

328	1.3625	452.86	1293.2	306.7	338.84	1552.2	467.92	344.81	1558.9	137.18	430.65	1855.8	288.36	389.21	1053.6	461.48	406.31	1045.1	196.1	158.4	1083.6	358.75	161.03	1082	254.83	312.82	1001.6	542.85	304.25	990.17	116.24	296.84	1152.9	517.65	299.98	1124	115.26	146.31	1046.2	303.31	413.36	705.45	545.66	506.16	663.61	531.46	449.1	624.18	530.56	473.03	747.45	544.02	478.76	569.18	531.39	512.42	573.49	386.46	372.38	443.05	527.9	404.79	343.85	490.88	344.9	380.02	510.95	428.68	410.13	514.54	274.49	192.26	460.54	325.43	187.8	377.27	212.38	192.28	386.34	221.83	160.73	356.95	203.69	158.58	419.09	356.31	70.501	506.35	412.11	69.474	395.38	466.26	63.501	461.64	271.06	706.17	150.13	355.62	635.15	154.43	280.38	617.61	171.31	337.63	726.42	130.99	328.4	531.23	167.53	349.18	538.86	307.98	262.55	394.67	153.15	316.28	301.94	183.12	257.73	317.18	160.23	322.13	378.21	171.81	227.01	107.93	203.95	251.33	117.43	300.98	154.25	77.506	250.14	164.28	52.477	284.12	162.88	50.994	221.58	372.84	39.824	187.92	398.2	46.29	309.77	461.75	54.533	258.71	262.7	1616.3	300.75	154.71	1310.1	315.14
329	1.3667	457.97	1293.3	306.85	343.73	1552.2	468.16	350.04	1559.1	137.37	435.71	1855.9	288.91	394.37	1053.6	461.36	411.11	1044.9	195.96	163.45	1083.7	359.12	165.91	1082.2	255.19	318.12	1001.8	543.03	308.73	990.21	116.35	302.16	1152.9	517.75	304.71	1123.9	115.3	151.24	1046.4	303.68	419.84	705.94	545.44	512.74	664.5	530.74	455.85	624.84	530.09	479.32	748.18	543.56	485.83	569.89	530.78	518.8	574.43	385.92	382.11	441.17	527.89	416.78	342.76	490.86	356.09	377.5	511.1	439.11	409.61	514.34	290.17	187.85	461.06	341.08	184.64	377.74	227.86	185.96	387.04	238.23	154.61	357.75	220.24	152.08	419.9	375.47	68.615	507.06	431.11	68.941	395.95	485.51	64.664	462.11	273.37	706.69	150.17	357.41	635.07	154.44	282.04	618.05	171.23	340.1	726.48	131.06	329.23	531.23	167.35	350.14	538.62	307.87	262.99	394.75	153.04	316.57	301.94	182.98	258.04	317.28	160.11	322.57	378.16	171.65	227.03	107.98	203.97	251.44	117.47	300.98	154.26	77.544	250.19	164.33	52.52	284.12	162.89	51.044	221.62	372.85	39.802	187.91	398.21	46.289	309.75	461.75	54.515	258.68	267.86	1616.4	300.87	159.83	1310.2	315.02
330	1.3708	463.08	1293.3	307	348.64	1552.1	468.42	355.26	1559.2	137.56	440.76	1855.9	289.46	399.52	1053.5	461.27	415.93	1044.7	195.84	168.51	1083.8	359.48	170.8	1082.4	255.55	323.39	1001.9	543.2	313.22	990.2	116.46	307.48	1152.9	517.87	309.47	1123.8	115.34	156.18	1046.5	304.04	426.2	706.32	545.17	519.19	665.26	529.98	462.47	625.39	529.57	485.52	748.79	543.07	492.78	570.51	530.14	525.07	575.26	385.34	391.82	439.26	527.84	428.76	341.68	490.85	367.29	374.98	511.24	449.49	409.08	514.14	305.98	183.51	461.62	356.81	181.54	378.24	243.53	179.66	387.77	254.81	148.54	358.6	236.99	145.67	420.75	394.69	66.928	507.85	450.13	68.566	396.6	504.72	66.023	462.67	275.71	707.2	150.21	359.23	634.98	154.47	283.72	618.48	171.15	342.59	726.52	131.13	330.08	531.22	167.16	351.1	538.38	307.76	263.45	394.84	152.93	316.87	301.93	182.84	258.36	317.38	159.99	323.04	378.11	171.48	227.05	108.02	204	251.56	117.51	300.99	154.27	77.582	250.25	164.39	52.565	284.13	162.89	51.096	221.65	372.86	39.779	187.89	398.22	46.287	309.73	461.74	54.495	258.65	273.02	1616.3	301	164.96	1310.1	314.93
331	1.375	468.19	1293.2	307.16	353.57	1552	468.68	360.48	1559.2	137.78	445.83	1855.9	290.02	404.66	1053.4	461.21	420.76	1044.4	195.75	173.56	1083.8	359.84	175.69	1082.5	255.89	328.62	1001.9	543.38	317.74	990.15	116.57	312.8	1152.8	518	314.27	1123.6	115.39	161.12	1046.6	304.39	432.46	706.59	544.84	525.53	665.89	529.21	468.96	625.82	529	491.61	749.28	542.56	499.61	571.04	529.45	531.26	575.97	384.71	401.5	437.32	527.78	440.72	340.61	490.86	378.5	372.45	511.38	459.82	408.53	513.93	321.9	179.26	462.22	372.64	178.5	378.79	259.39	173.42	388.55	271.57	142.54	359.51	253.92	139.35	421.65	413.94	65.451	508.71	469.17	68.361	397.33	523.89	67.582	463.32	278.07	707.69	150.23	361.07	634.88	154.5	285.43	618.9	171.05	345.1	726.56	131.22	330.95	531.22	166.96	352.06	538.12	307.65	263.93	394.92	152.81	317.18	301.92	182.69	258.7	317.48	159.86	323.52	378.06	171.31	227.07	108.05	204.02	251.7	117.55	301	154.28	77.619	250.3	164.43	52.612	284.13	162.9	51.148	221.68	372.86	39.754	187.87	398.23	46.283	309.71	461.74	54.474	258.62	278.19	1616.3	301.16	170.08	1310.1	314.87
332	1.3792	473.31	1293.1	307.32	358.53	1551.8	468.95	365.69	1559.2	138	450.9	1855.8	290.59	409.8	1053.1	461.18	425.6	1044	195.69	178.62	1083.7	360.19	180.58	1082.6	256.24	333.82	1001.8	543.56	322.28	990.08	116.68	318.12	1152.6	518.14	319.1	1123.3	115.46	166.06	1046.7	304.73	438.6	706.74	544.46	531.74	666.39	528.41	475.32	626.13	528.37	497.6	749.64	542.02	506.32	571.46	528.73	537.36	576.56	384.03	411.16	435.35	527.69	452.67	339.56	490.87	389.71	369.92	511.5	470.09	407.98	513.71	337.94	175.1	462.87	388.54	175.53	379.39	275.42	167.24	389.38	288.52	136.62	360.47	271.02	133.14	422.61	433.22	64.196	509.65	488.2	68.335	398.14	543.01	69.35	464.04	280.47	708.16	150.25	362.94	634.77	154.54	287.17	619.31	170.95	347.65	726.57	131.32	331.85	531.21	166.75	353.02	537.86	307.55	264.43	394.99	152.68	317.51	301.9	182.54	259.05	317.57	159.72	324.01	378	171.13	227.1	108.09	204.05	251.83	117.59	301	154.29	77.657	250.34	164.47	52.66	284.14	162.91	51.202	221.71	372.87	39.727	187.85	398.25	46.278	309.69	461.73	54.452	258.59	283.37	1616.1	301.33	175.22	1309.9	314.83
333	1.3833	478.43	1292.9	307.49	363.52	1551.6	469.22	370.9	1559.1	138.24	455.98	1855.6	291.17	414.92	1052.8	461.17	430.47	1043.7	195.66	183.68	1083.6	360.53	185.48	1082.6	256.57	338.99	1001.6	543.74	326.84	989.96	116.8	323.44	1152.3	518.29	323.96	1123	115.53	171.01	1046.7	305.06	444.62	706.77	544.03	537.83	666.75	527.58	481.54	626.32	527.7	503.48	749.86	541.45	512.91	571.79	527.97	543.36	577.04	383.3	420.78	433.36	527.57	464.59	338.55	490.91	400.91	367.4	511.61	480.32	407.43	513.49	354.08	171.06	463.57	404.52	172.65	380.03	291.62	161.15	390.27	305.63	130.81	361.48	288.3	127.06	423.63	452.52	63.171	510.66	507.22	68.497	399.03	562.05	71.33	464.84	282.89	708.62	150.26	364.84	634.65	154.59	288.94	619.71	170.84	350.23	726.57	131.42	332.77	531.2	166.53	353.98	537.6	307.44	264.95	395.07	152.55	317.85	301.88	182.38	259.41	317.66	159.59	324.52	377.93	170.94	227.12	108.12	204.06	251.97	117.63	301.01	154.3	77.697	250.39	164.5	52.711	284.16	162.92	51.256	221.73	372.88	39.699	187.82	398.26	46.271	309.67	461.73	54.428	258.56	288.55	1615.9	301.52	180.35	1309.7	314.82
334	1.3875	483.55	1292.6	307.67	368.53	1551.3	469.5	376.11	1559	138.49	461.07	1855.4	291.74	420.04	1052.4	461.2	435.37	1043.2	195.65	188.74	1083.5	360.87	190.39	1082.6	256.91	344.14	1001.3	543.93	331.43	989.81	116.92	328.75	1152	518.45	328.84	1122.6	115.61	175.96	1046.6	305.38	450.52	706.69	543.55	543.79	666.98	526.74	487.64	626.38	526.97	509.24	749.96	540.87	519.39	572.03	527.16	549.27	577.41	382.52	430.36	431.36	527.42	476.48	337.57	490.95	412.12	364.9	511.71	490.48	406.88	513.26	370.32	167.14	464.31	420.56	169.87	380.71	307.99	155.17	391.21	322.9	125.13	362.55	305.75	121.13	424.7	471.83	62.386	511.74	526.23	68.857	399.98	581.02	73.53	465.7	285.34	709.07	150.25	366.76	634.52	154.64	290.73	620.1	170.71	352.83	726.56	131.54	333.72	531.2	166.29	354.95	537.33	307.33	265.48	395.14	152.41	318.2	301.85	182.22	259.78	317.75	159.45	325.04	377.86	170.75	227.14	108.16	204.08	252.11	117.68	301.01	154.31	77.737	250.43	164.53	52.762	284.17	162.93	51.311	221.75	372.89	39.668	187.8	398.27	46.263	309.66	461.73	54.401	258.53	293.74	1615.7	301.73	185.49	1309.5	314.84
335	1.3917	488.68	1292.2	307.85	373.58	1550.9	469.79	381.32	1558.7	138.75	466.17	1855.1	292.33	425.15	1051.9	461.26	440.28	1042.7	195.67	193.8	1083.2	361.2	195.29	1082.5	257.23	349.27	1000.9	544.11	336.04	989.63	117.04	334.05	1151.6	518.62	333.74	1122.2	115.7	180.92	1046.5	305.68	456.3	706.48	543.02	549.63	667.07	525.88	493.6	626.32	526.2	514.89	749.93	540.26	525.75	572.17	526.31	555.09	577.66	381.68	439.92	429.36	527.25	488.34	336.64	491.01	423.31	362.42	511.78	500.59	406.34	513.02	386.64	163.36	465.1	436.65	167.21	381.44	324.51	149.3	392.2	340.31	119.58	363.67	323.34	115.37	425.83	491.13	61.849	512.89	545.2	69.421	401	599.9	75.951	466.63	287.83	709.5	150.23	368.7	634.38	154.7	292.56	620.48	170.57	355.47	726.53	131.66	334.7	531.19	166.05	355.92	537.06	307.21	266.02	395.22	152.26	318.56	301.82	182.05	260.16	317.85	159.3	325.57	377.79	170.55	227.16	108.19	204.09	252.23	117.73	301.02	154.33	77.78	250.46	164.55	52.816	284.19	162.94	51.368	221.77	372.89	39.635	187.78	398.29	46.253	309.64	461.74	54.371	258.5	298.94	1615.3	301.96	190.63	1309.2	314.88
336	1.3958	493.8	1291.7	308.03	378.65	1550.5	470.09	386.52	1558.4	139.03	471.28	1854.8	292.92	430.26	1051.4	461.34	445.23	1042.2	195.71	198.87	1083	361.52	200.2	1082.4	257.55	354.39	1000.5	544.29	340.67	989.42	117.16	339.34	1151.1	518.8	338.66	1121.7	115.81	185.89	1046.3	305.98	461.96	706.15	542.45	555.34	667.02	525	499.42	626.12	525.39	520.43	749.76	539.63	532	572.21	525.43	560.82	577.79	380.79	449.44	427.35	527.05	500.16	335.76	491.08	434.5	359.97	511.84	510.63	405.82	512.77	403.05	159.74	465.94	452.79	164.66	382.21	341.18	143.57	393.25	357.86	114.19	364.85	341.08	109.78	427.01	510.41	61.565	514.09	564.12	70.197	402.07	618.67	78.598	467.6	290.34	709.91	150.2	370.67	634.23	154.76	294.41	620.85	170.42	358.14	726.48	131.78	335.7	531.19	165.78	356.9	536.78	307.09	266.58	395.29	152.1	318.93	301.78	181.86	260.54	317.94	159.16	326.12	377.72	170.34	227.19	108.22	204.1	252.36	117.78	301.01	154.35	77.826	250.49	164.56	52.872	284.21	162.95	51.426	221.79	372.9	39.6	187.75	398.3	46.242	309.62	461.74	54.339	258.47	304.15	1615	302.21	195.78	1308.8	314.95
337	1.4	498.94	1291.2	308.23	383.74	1550	470.4	391.71	1558.1	139.32	476.4	1854.4	293.52	435.36	1050.8	461.46	450.2	1041.6	195.78	203.94	1082.6	361.83	205.12	1082.3	257.86	359.51	999.95	544.47	345.33	989.18	117.28	344.63	1150.6	518.99	343.61	1121.2	115.93	190.86	1046.1	306.27	467.5	705.7	541.84	560.93	666.84	524.11	505.11	625.8	524.53	525.86	749.45	538.99	538.13	572.17	524.51	566.45	577.8	379.85	458.92	425.35	526.83	511.93	334.94	491.16	445.68	357.55	511.87	520.62	405.31	512.52	419.51	156.28	466.82	468.97	162.26	383.01	357.99	138	394.34	375.54	108.98	366.07	358.94	104.39	428.24	529.65	61.541	515.34	582.99	71.19	403.2	637.32	81.471	468.63	292.88	710.31	150.15	372.67	634.07	154.82	296.29	621.21	170.25	360.83	726.42	131.9	336.74	531.18	165.51	357.88	536.49	306.97	267.16	395.36	151.94	319.31	301.73	181.67	260.93	318.03	159.01	326.68	377.64	170.12	227.21	108.26	204.1	252.48	117.84	301.01	154.37	77.874	250.52	164.57	52.929	284.23	162.97	51.486	221.81	372.91	39.563	187.72	398.31	46.229	309.6	461.75	54.304	258.45	309.36	1614.6	302.47	200.93	1308.4	315.05
